<?xml version="1.0" encoding="UTF-8"?>
<svg id="Tarragon" xmlns="http://www.w3.org/2000/svg" viewBox="0 0 1454.76 431">
  <defs>
    <style>
      .cls-1 {
        fill: #f1e6e0;
      }

      .cls-1, .cls-2 {
        stroke-width: 0px;
      }
    </style>
  </defs>
  <g id="Compound_Tarragon">
    <g id="N">
      <path class="cls-1" d="M1363,396c-2.05,0-3.89-1.25-4.65-3.15l-47.35-119.05v87.2c0,16.25,14.55,22.47,26.76,24.82,4.89.94,5.11,4.23,4.98,5.61-.44,4.57-5.02,4.57-6.74,4.57h-110c-1.72,0-6.31,0-6.74-4.57-.13-1.37.09-4.66,4.98-5.61,12.21-2.36,26.76-8.58,26.76-24.82v-209c0-16.25-14.55-22.47-26.76-24.82-4.89-.94-5.11-4.23-4.98-5.61.44-4.57,5.02-4.57,6.74-4.57h80c2.05,0,3.89,1.25,4.65,3.15l47.35,119.05v-87.2c0-16.25-14.55-22.47-26.76-24.82-4.89-.94-5.11-4.23-4.98-5.61.44-4.57,5.02-4.57,6.74-4.57h110c2.76,0,5,2.24,5,5s-2.24,5-5,5c-.05,0-6.68.09-13.04,3.36-7.94,4.09-11.96,11.37-11.96,21.64v209c0,16.25,14.55,22.47,26.76,24.82,4.89.94,5.11,4.23,4.98,5.61-.44,4.57-5.02,4.57-6.74,4.57h-80Z"/>
      <path class="cls-2" d="M1443,122h0M1443,122s-30,0-30,30v209c0,30,40.61,30,30,30h-80l-57-143.3v113.3c0,30,40.61,30,30,30h-110c-10.61,0,30,0,30-30v-209c0-30-40.61-30-30-30h80l57,143.3v-113.3c0-30-40.61-30-30-30h110M1443.01,112h-110.01c-.7,0-1.21,0-1.54,0-6.41.13-9.77,4.8-10.18,9.09-.42,4.39,2.21,9.5,8.03,10.79.22.05.55.12.98.2,15.07,2.91,22.71,9.61,22.71,19.91v61.1l-37.71-94.8c-1.51-3.81-5.2-6.3-9.29-6.3h-80c-.7,0-1.21,0-1.54,0-6.41.13-9.77,4.8-10.18,9.09-.42,4.39,2.21,9.5,8.03,10.79.22.05.55.12.98.2,15.07,2.91,22.71,9.61,22.71,19.91v209c0,10.31-7.64,17.01-22.71,19.91-.42.08-.75.15-.98.2-5.83,1.29-8.45,6.41-8.03,10.79.41,4.29,3.77,8.96,10.18,9.09.33,0,.84,0,1.54,0h110c.7,0,1.21,0,1.54,0,6.41-.13,9.77-4.8,10.18-9.09.42-4.39-2.21-9.5-8.03-10.79-.22-.05-.55-.12-.98-.2-15.07-2.91-22.71-9.61-22.71-19.91v-61.1l37.71,94.8c1.51,3.81,5.2,6.3,9.29,6.3h80c.7,0,1.21,0,1.54,0,6.41-.13,9.77-4.8,10.18-9.09.42-4.39-2.21-9.5-8.03-10.79-.22-.05-.55-.12-.98-.2-15.07-2.91-22.71-9.61-22.71-19.91v-209c0-8.38,2.86-13.8,9.01-17.07,5.19-2.76,10.8-2.93,11.06-2.93,5.49-.04,9.94-4.5,9.94-10s-4.47-10-10-10h0ZM1443,132h0,0Z"/>
    </g>
    <g id="O">
      <path class="cls-1" d="M1139,396c-1.64,0-3.17-.8-4.11-2.15l-50-72c-.58-.84-.89-1.83-.89-2.85v-124c0-1.04.32-2.05.93-2.9l52-73c.94-1.32,2.46-2.1,4.07-2.1h50c1.65,0,3.19.81,4.12,2.17l50,73c.57.83.88,1.82.88,2.83v124c0,1.05-.33,2.08-.95,2.93l-52,72c-.94,1.3-2.45,2.07-4.05,2.07h-50ZM1164.57,329.46l21.43-29.1v-88.77l-20.57-29.05-21.43,29.1v88.77l20.57,29.05Z"/>
      <path class="cls-2" d="M1191,122l50,73v124l-52,72h-50l-50-72v-124l52-73h50M1164.49,338l26.51-36v-92l-25.49-36-26.51,36v92l25.49,36M1191,112h-50c-3.23,0-6.27,1.56-8.14,4.2l-52,73c-1.21,1.69-1.86,3.72-1.86,5.8v124c0,2.04.62,4.03,1.79,5.7l50,72c1.87,2.69,4.94,4.3,8.21,4.3h50c3.21,0,6.23-1.54,8.11-4.15l52-72c1.23-1.7,1.89-3.75,1.89-5.85v-124c0-2.02-.61-3.99-1.75-5.65l-50-73c-1.86-2.72-4.95-4.35-8.25-4.35h0ZM1149,213.28l16.35-22.2,15.65,22.1v85.53l-16.35,22.2-15.65-22.1v-85.53h0Z"/>
    </g>
    <g id="G">
      <path class="cls-1" d="M972,397c-1.64,0-3.17-.8-4.11-2.15l-50-72c-.58-.84-.89-1.83-.89-2.85v-124c0-1.04.32-2.05.93-2.9l52-73c.94-1.32,2.46-2.1,4.07-2.1h50c1.65,0,3.19.81,4.12,2.17l50,73c.57.83.88,1.82.88,2.83v12c0,2.76-2.24,5-5,5h-52.12c-1.62,0-3.14-.79-4.08-2.11l-19.36-27.35-21.43,29.1v88.77l20.41,28.82,19.59-28.77c0-3-.02-6.07-.05-8.46h-24.95c-2.76,0-5-2.24-5-5v-50c0-2.76,2.24-5,5-5h82c2.76,0,5,2.24,5,5v82c0,1.05-.33,2.08-.95,2.93l-52,72c-.94,1.3-2.45,2.07-4.05,2.07h-50Z"/>
      <path class="cls-2" d="M1024,123l50,73v12h-52.12l-23.37-33-26.51,36v92l25.49,36,24.51-36s0-15-.21-15h-29.79v-50h82v82l-52,72h-50l-50-72v-124l52-73h50M1024,113h-50c-3.23,0-6.27,1.56-8.14,4.2l-52,73c-1.21,1.69-1.86,3.72-1.86,5.8v124c0,2.04.62,4.03,1.79,5.7l50,72c1.87,2.69,4.94,4.3,8.21,4.3h50c3.21,0,6.23-1.54,8.11-4.15l52-72c1.23-1.7,1.89-3.75,1.89-5.85v-82c0-5.52-4.48-10-10-10h-82c-5.52,0-10,4.48-10,10v-23.72l16.35-22.2,15.36,21.7c1.87,2.65,4.92,4.22,8.16,4.22h52.12c5.52,0,10-4.48,10-10v-12c0-2.02-.61-3.99-1.75-5.65l-50-73c-1.86-2.72-4.95-4.35-8.25-4.35h0ZM982,299.82v-11.82c0,5.52,4.48,10,10,10h19.99c0,.64,0,1.28,0,1.93l-14.67,21.54-15.33-21.65h0Z"/>
    </g>
    <g id="ARRA">
      <path class="cls-1" d="M857,396c-2.76,0-5-2.24-5-5v-30c0-5.64.04-39.15.06-52h-41.97c-.03,12.68-.09,45.57-.09,52v30c0,2.76-2.24,5-5,5h-116c-1.7,0-3.29-.87-4.21-2.3l-29.79-46.43v43.73c0,2.76-2.24,5-5,5h-114c-1.7,0-3.29-.87-4.21-2.3l-29.79-46.43v43.73c0,2.76-2.24,5-5,5h-116c-2.76,0-5-2.24-5-5v-30c0-5.64.04-39.15.06-52h-41.97c-.03,12.68-.09,45.57-.09,52v30c0,2.76-2.24,5-5,5h-81c-2.76,0-5-2.24-5-5s2.24-5,5-5c.05,0,6.68-.09,13.04-3.36,7.94-4.09,11.96-11.37,11.96-21.64v-165c0-1.06.34-2.09.96-2.95l54-74c.94-1.29,2.44-2.05,4.04-2.05h50c1.67,0,3.22.83,4.15,2.21l49,73c.55.82.85,1.79.85,2.79v166c0,5.14,1.01,9.54,3,13.15,1.99-3.61,3-8.01,3-13.15v-209c0-21.25-19.48-24.51-25.45-25-3.21-.27-4.83-2.88-4.74-5.2.1-2.33,1.95-4.8,5.19-4.8h96c1.16,0,2.28.4,3.17,1.14l73,60c1.16.95,1.83,2.37,1.83,3.86v70c0,1.36-.55,2.66-1.53,3.6l-50.13,48.23,46.46,77.14c6.11-4.27,9.2-10.97,9.2-19.97v-209c0-16.25-14.55-22.47-26.76-24.82-4.71-.91-5.14-3.9-4.98-5.61.44-4.57,5.02-4.57,6.74-4.57h96c1.16,0,2.28.4,3.17,1.14l73,60c1.16.95,1.83,2.37,1.83,3.86v70c0,1.36-.55,2.66-1.53,3.6l-50.13,48.23,46.75,77.61c6.58-4.24,9.91-11.1,9.91-20.45v-165c0-1.06.34-2.09.96-2.95l54-74c.94-1.29,2.44-2.05,4.04-2.05h50c1.67,0,3.22.83,4.15,2.21l49,73c.55.82.85,1.79.85,2.79v166c0,16.25,14.55,22.47,26.76,24.82,4.71.91,5.14,3.9,4.98,5.61-.44,4.57-5.02,4.57-6.74,4.57h-80ZM852,249v-36.42l-21-29.88-21,29.88v36.42h42ZM664.13,249l19.87-17.28v-32.29l-19.72-15.44h-9.28v65h9.13ZM511.13,249l19.87-17.28v-32.29l-19.72-15.44h-9.28v65h9.13ZM376,249v-36.42l-21-29.88-21,29.88v36.42h42Z"/>
      <path class="cls-2" d="M858,122l49,73v166c0,30,40.61,30,30,30h-80v-30c0-7,.07-57,.07-57h-51.97s-.1,49-.1,57v30h-116l-39-60.79v60.79h-114l-39-60.79v60.79h-116v-30c0-7,.07-57,.07-57h-51.97s-.1,49-.1,57v30h-81s30,0,30-30v-165l54-74h50l49,73v166c0,10.16,3.45,16.88,8,21.32,4.55-4.44,8-11.16,8-21.32v-209c0-30-33-30-30-30h96l73,60v70l-53,51,51.02,84.71c7.81-3.58,15.98-11.06,15.98-26.71v-209c0-30-40.61-30-30-30h96l73,60v70l-53,51,51.23,85.06c8.04-3.43,16.77-10.88,16.77-27.06v-165l54-74h50M805,254h52v-43l-26-37-26,37v43M329,254h52v-43l-26-37-26,37v43M650,254h16l23-20v-37l-23-18h-16v75M497,254h16l23-20v-37l-23-18h-16v75M858,112h-50c-3.19,0-6.2,1.53-8.08,4.11l-50.92,69.78v-3.89c0-2.99-1.34-5.83-3.65-7.73l-73-60c-1.79-1.47-4.03-2.27-6.35-2.27h-96c-.7,0-1.21,0-1.54,0-6.41.13-9.77,4.8-10.18,9.09-.42,4.39,2.21,9.5,8.03,10.79.22.05.55.12.98.2,15.07,2.91,22.71,9.61,22.71,19.91v20.34l-70.65-58.07c-1.79-1.47-4.03-2.27-6.35-2.27h-96c-6.36,0-9.99,4.94-10.18,9.59-.19,4.71,3.24,9.89,9.32,10.39,6.27.52,20.86,3.51,20.86,20.02v34l-46.7-69.57c-1.86-2.77-4.97-4.43-8.3-4.43h-50c-3.19,0-6.2,1.53-8.08,4.11l-54,74c-1.25,1.71-1.92,3.78-1.92,5.89v165c0,8.58-3.01,14.07-9.47,17.31-5.07,2.54-10.48,2.69-10.53,2.69-5.52,0-10,4.48-10,10s4.48,10,10,10h81c5.52,0,10-4.48,10-10v-30c0-5.66.05-32.22.08-47h31.97c-.02,14.99-.05,42.02-.05,47v30c0,5.52,4.48,10,10,10h116c5.52,0,10-4.48,10-10v-26.68l20.58,32.08c1.84,2.87,5.01,4.6,8.42,4.6h114c5.52,0,10-4.48,10-10v-26.68l20.58,32.08c1.84,2.87,5.01,4.6,8.42,4.6h116c5.52,0,10-4.48,10-10v-30c0-5.66.05-32.22.08-47h31.97c-.02,14.99-.05,42.02-.05,47v30c0,5.52,4.48,10,10,10h80c.7,0,1.21,0,1.54,0,6.41-.13,9.77-4.8,10.18-9.09.42-4.39-2.21-9.5-8.03-10.79-.22-.05-.55-.12-.98-.2-15.07-2.91-22.71-9.61-22.71-19.91v-166c0-1.98-.59-3.93-1.7-5.57l-49-73c-1.86-2.77-4.97-4.43-8.3-4.43h0ZM660,189h2.55l16.45,12.87v27.57l-16.74,14.56h-2.26v-55h0ZM507,189h2.55l16.45,12.87v27.57l-16.74,14.56h-2.26v-55h0ZM815,214.16l16-22.77,16,22.77v29.84h-32v-29.84h0ZM339,214.16l16-22.77,16,22.77v29.84h-32v-29.84h0ZM698.68,304.67l45.32-43.61v99.93c0,5.4-1.2,9.59-3.71,12.76l-41.61-69.08h0ZM545.68,304.67l44.32-42.65v98.97c0,4.99-1.02,8.94-3.16,12.01l-41.16-68.34h0Z"/>
    </g>
    <g id="T">
      <path class="cls-1" d="M116,426c-2.76,0-5-2.24-5-5s2.24-5,5-5c.55,0,55-.73,55-25v-45.96c0-52.58,0-129.03,0-186.89-.9-2.62-11.93-10.15-25-10.15-2.76,0-5-2.24-5-5s2.24-5,5-5c12.51,0,23.59-7.52,25-10.36,0-21.37,0-38.62-.01-46.72H40c-17.26,0-22.97,21.69-24.83,34.62-.51,3.55-2.24,5.35-5.13,5.35-1.71,0-4.97-1.12-5.03-5.38,0-.33,0-.82,0-1.51V10c0-2.76,2.24-5,5-5h397.9c2.76,0,5,2.23,5,4.99,0,.78.1,78.3.1,104.01,0,2.76-2.24,5.07-5,5.07s-4.9-2.19-5-4.88c-.13-3.4-1.91-33.2-25-33.2-19.68,0-108.87-.06-131.07-.07.02,8.42.07,26.46.07,46.81,1.18,2.77,12.13,10.26,25,10.26,2.76,0,5,2.24,5,5s-2.24,5-5,5c-13.83,0-24.55,7.56-25,10.07.01,57.02,0,133.97,0,186.85v46.08c0,24.27,55.44,25,56,25,2.76,0,5,2.24,5,5s-2.24,5-5,5H116Z"/>
      <path class="cls-2" d="M407.9,10s.1,78,.1,104c0,.05,0,.07,0,.07-.02,0-.73-38.07-30-38.07-22.52,0-136.09-.07-136.09-.07,0,0,.08,23.66.09,52.07,0,5.56,15,15,30,15-15,0-30,8.44-30,15,.01,77.89,0,192.75,0,233,0,30,61,30,61,30H116s60,0,60-30c0-40.3,0-154.03,0-233,0-5.99-15-15-30-15,15,0,30-9.84,30-15,0-30.06-.01-52.07-.01-52.07H40c-26.77,0-29.65,39.96-29.96,39.96-.04,0-.04-.58-.04-1.89V10h397.9M407.9,0H10C4.48,0,0,4.48,0,10v104c0,.72,0,1.24,0,1.58.1,6.69,5.24,10.3,10.03,10.3,4.1,0,8.95-2.7,9.93-8.64.04-.23.09-.56.15-.99,1.63-11.33,6.39-30.33,19.88-30.33h125.99c0,8.87,0,23.03,0,39.9-2.8,2.6-11.19,7.17-20,7.17-5.52,0-10,4.48-10,10s4.48,10,10,10c9.15,0,17.46,4.39,20,6.82,0,57.65,0,133.15,0,185.22v45.96c0,8.98-12.04,13.92-22.14,16.48-13.64,3.46-27.73,3.52-27.87,3.52-5.52,0-9.99,4.49-9.99,10.01,0,5.52,4.48,9.99,10,9.99h187c5.52,0,10-4.48,10-10s-4.48-10-10-10c-.14,0-14.49-.06-28.39-3.53-10.31-2.57-22.61-7.52-22.61-16.47v-46.08c0-52.39,0-128.42,0-185.34,2.36-2.3,10.62-6.57,20-6.57,5.52,0,10-4.48,10-10s-4.48-10-10-10c-8.97,0-17.32-4.49-20-7.01,0-16.24-.04-30.87-.06-40.06,28.29.02,107.75.07,126.06.07s19.89,25.48,20,28.38c.2,5.43,4.59,9.69,10,9.69s10-4.52,10-10.07c0-25.71-.1-103.23-.1-104.01,0-5.52-4.48-9.99-10-9.99h0Z"/>
    </g>
  </g>
</svg>